<svg id="Layer_1" data-name="Layer 1" xmlns="http://www.w3.org/2000/svg" viewBox="0 0 937.63 937.63"><defs><style>.cls-1{fill:#65bc7b;}.cls-2,.cls-3{fill:#fff;}.cls-3{font-size:100px;font-family:Bahnschrift;}.cls-4{font-family:Myriad Pro;}</style></defs><title>icon</title><rect class="cls-1" width="937.63" height="937.63"/><g id="surface1"><path class="cls-2" d="M202.85,625.37h20.75V604.62H202.85a20.75,20.75,0,0,1-20.75-20.75v-415a20.75,20.75,0,0,1,20.75-20.75H659.29A20.75,20.75,0,0,1,680,168.92v20.75h20.75V168.92a41.5,41.5,0,0,0-41.5-41.5H202.85a41.5,41.5,0,0,0-41.5,41.5v415A41.5,41.5,0,0,0,202.85,625.37Z" transform="translate(1.63 0.63)"/><path class="cls-2" d="M202.85,168.92h20.75v20.75H202.85V168.92Z" transform="translate(1.63 0.63)"/><path class="cls-2" d="M244.34,168.92h20.75v20.75H244.34V168.92Z" transform="translate(1.63 0.63)"/><path class="cls-2" d="M285.84,168.92h20.75v20.75H285.84V168.92Z" transform="translate(1.63 0.63)"/><path class="cls-2" d="M244.34,666.86a41.5,41.5,0,0,0,41.5,41.5H742.28a41.5,41.5,0,0,0,41.5-41.5v-415a41.5,41.5,0,0,0-41.5-41.5H285.84a41.5,41.5,0,0,0-41.5,41.5v415Zm20.75-415a20.75,20.75,0,0,1,20.75-20.75H742.28A20.75,20.75,0,0,1,763,251.91v415a20.75,20.75,0,0,1-20.75,20.75H285.84a20.75,20.75,0,0,1-20.75-20.75v-415Z" transform="translate(1.63 0.63)"/><path class="cls-2" d="M285.84,251.91h20.75v20.75H285.84V251.91Z" transform="translate(1.63 0.63)"/><path class="cls-2" d="M327.33,251.91h20.75v20.75H327.33V251.91Z" transform="translate(1.63 0.63)"/><path class="cls-2" d="M368.83,251.91h20.75v20.75H368.83V251.91Z" transform="translate(1.63 0.63)"/><path class="cls-2" d="M285.84,293.41H742.28v20.75H285.84V293.41Z" transform="translate(1.63 0.63)"/><path class="cls-2" d="M285.84,345.28h83V366h-83V345.28Z" transform="translate(1.63 0.63)"/><path class="cls-2" d="M285.84,386.77h62.24v20.75H285.84V386.77Z" transform="translate(1.63 0.63)"/><path class="cls-2" d="M514.06,428.27a72.62,72.62,0,1,0,72.62,72.62A72.61,72.61,0,0,0,514.06,428.27Zm0,124.49a51.87,51.87,0,1,1,51.87-51.87A51.87,51.87,0,0,1,514.06,552.75Z" transform="translate(1.63 0.63)"/><path class="cls-2" d="M680,469.76a10.37,10.37,0,0,0-10.37-10.37H642.25A132,132,0,0,0,634,439.57l19.39-19.38a10.38,10.38,0,0,0,0-14.67l-44-44a10.38,10.38,0,0,0-14.67,0l-19.38,19.38a134.25,134.25,0,0,0-19.81-8.2V345.28a10.37,10.37,0,0,0-10.37-10.37H482.94a10.37,10.37,0,0,0-10.37,10.37v27.42a134.25,134.25,0,0,0-19.81,8.2l-19.38-19.38a10.38,10.38,0,0,0-14.67,0l-44,44a10.38,10.38,0,0,0,0,14.67l19.38,19.38c-0.87,1.7-1.7,3.4-2.49,5.12a134.18,134.18,0,0,0-5.71,14.69H358.45a10.37,10.37,0,0,0-10.37,10.37V532a10.37,10.37,0,0,0,10.37,10.37h27.42a132,132,0,0,0,8.21,19.81l-19.39,19.38a10.38,10.38,0,0,0,0,14.67l44,44a10.38,10.38,0,0,0,14.67,0l19.38-19.38a134.25,134.25,0,0,0,19.81,8.2v27.42a10.37,10.37,0,0,0,10.37,10.37h62.24a10.37,10.37,0,0,0,10.37-10.37V629.07a134.25,134.25,0,0,0,19.81-8.2l19.38,19.38a10.38,10.38,0,0,0,14.67,0l44-44a10.38,10.38,0,0,0,0-14.67L634,562.19a132,132,0,0,0,8.21-19.81h27.42A10.37,10.37,0,0,0,680,532V469.76Zm-20.75,51.87H634.46a10.37,10.37,0,0,0-10,7.78,113.42,113.42,0,0,1-12.14,29.34,10.38,10.38,0,0,0,1.6,12.6l17.54,17.55-29.34,29.35L584.53,600.7a10.37,10.37,0,0,0-12.61-1.6,113.3,113.3,0,0,1-29.33,12.14,10.37,10.37,0,0,0-7.78,10v24.83h-41.5V621.28a10.37,10.37,0,0,0-7.78-10A113.3,113.3,0,0,1,456.2,599.1a10.37,10.37,0,0,0-12.61,1.6L426,618.25,396.7,588.9l17.54-17.55a10.38,10.38,0,0,0,1.6-12.6,113.42,113.42,0,0,1-12.14-29.34,10.37,10.37,0,0,0-10-7.78H368.83v-41.5h24.83a10.37,10.37,0,0,0,10-7.78,112.65,112.65,0,0,1,6.75-19A114.56,114.56,0,0,1,415.84,443a10.38,10.38,0,0,0-1.6-12.6L396.7,412.82,426,383.47,443.59,401a10.37,10.37,0,0,0,12.61,1.59,113.48,113.48,0,0,1,29.33-12.14,10.37,10.37,0,0,0,7.78-10v-24.8h41.5v24.83a10.37,10.37,0,0,0,7.78,10,113.3,113.3,0,0,1,29.33,12.14,10.37,10.37,0,0,0,12.61-1.6l17.55-17.55,29.34,29.35-17.54,17.55a10.38,10.38,0,0,0-1.6,12.6,113.42,113.42,0,0,1,12.14,29.34,10.37,10.37,0,0,0,10,7.78h24.83v41.5Z" transform="translate(1.63 0.63)"/><path class="cls-2" d="M680,646.12h62.24v20.75H680V646.12Z" transform="translate(1.63 0.63)"/></g><text class="cls-3" transform="translate(245.97 852.49)">ak<tspan class="cls-4" x="106.1" y="0"> </tspan><tspan class="cls-4" x="127.3" y="0">t</tspan><tspan class="cls-4" x="159.8" y="0">oolset</tspan></text><circle class="cls-2" cx="357.48" cy="826.68" r="13.78"/><circle cx="355.86" cy="826.05" r="8.45" transform="translate(-478.25 494.2) rotate(-45)"/></svg>